<?xml version="1.0" encoding="UTF-8" standalone="no"?>
<!-- Created with Inkscape (http://www.inkscape.org/) -->

<svg
   xmlns:dc="http://purl.org/dc/elements/1.1/"
   xmlns:cc="http://creativecommons.org/ns#"
   xmlns:rdf="http://www.w3.org/1999/02/22-rdf-syntax-ns#"
   xmlns:svg="http://www.w3.org/2000/svg"
   xmlns="http://www.w3.org/2000/svg"
   xmlns:sodipodi="http://sodipodi.sourceforge.net/DTD/sodipodi-0.dtd"
   xmlns:inkscape="http://www.inkscape.org/namespaces/inkscape"
   width="210mm"
   height="297mm"
   viewBox="0 0 210 297"
   version="1.1"
   id="svg8"
   inkscape:version="0.92.0 r15299"
   sodipodi:docname="arrow.svg">
  <defs
     id="defs2" />
  <sodipodi:namedview
     id="base"
     pagecolor="#ffffff"
     bordercolor="#666666"
     borderopacity="1.0"
     inkscape:pageopacity="0.0"
     inkscape:pageshadow="2"
     inkscape:zoom="0.35"
     inkscape:cx="-87.142857"
     inkscape:cy="560"
     inkscape:document-units="mm"
     inkscape:current-layer="layer1"
     showgrid="false"
     inkscape:window-width="1920"
     inkscape:window-height="1018"
     inkscape:window-x="-8"
     inkscape:window-y="-8"
     inkscape:window-maximized="1" />
  <metadata
     id="metadata5">
    <rdf:RDF>
      <cc:Work
         rdf:about="">
        <dc:format>image/svg+xml</dc:format>
        <dc:type
           rdf:resource="http://purl.org/dc/dcmitype/StillImage" />
        <dc:title></dc:title>
      </cc:Work>
    </rdf:RDF>
  </metadata>
  <g
     inkscape:label="Layer 1"
     inkscape:groupmode="layer"
     id="layer1">
    <path
       style="fill:#000000;stroke-width:0.26458332"
       d="m 100.70319,226.70726 c -1.165062,-0.23141 -2.374849,-1.27064 -2.152797,-1.8493 0.0746,-0.19441 0.63836,-0.70186 1.252795,-1.12766 l 1.117152,-0.77419 0.52794,0.72474 c 1.13745,1.56147 3.20546,1.97026 4.32148,0.85423 1.47928,-1.47927 0.5543,-2.64162 -3.15341,-3.96261 -1.52217,-0.54232 -2.954692,-1.1928 -3.183392,-1.4455 -1.215845,-1.3435 -0.499568,-3.22397 1.774272,-4.65808 l 1.25853,-0.79375 -0.13173,-1.29265 c -0.0725,-0.71096 -0.18944,-1.35036 -0.25997,-1.42089 -0.0705,-0.0705 -1.90782,-0.406 -4.082859,-0.7455 -4.85562,-0.75788 -7.43386,-1.40487 -11.563381,-2.90171 -5.572024,-2.01971 -8.793141,-3.66503 -13.610705,-6.95226 -3.619278,-2.46958 -6.176095,-4.66796 -9.13507,-7.85443 -5.21064,-5.61125 -7.95588,-9.55346 -10.84982,-15.58052 -2.99308,-6.23354 -4.90531,-12.99362 -5.43433,-19.21141 -0.15476,-1.81901 -0.33736,-3.79501 -0.40578,-4.39111 l -0.12439,-1.08382 -2.66682,-0.71511 c -1.46675,-0.39332 -2.70837,-0.67358 -2.75915,-0.62279 -0.2388,0.23879 -1.38544,3.07179 -1.55141,3.83304 -0.16459,0.75494 -1.21242,1.92146 -1.72595,1.92146 -0.10204,0 -0.38852,-0.74414 -0.63664,-1.65365 -0.79919,-2.92955 -2.08778,-6.30432 -2.37112,-6.20987 -0.3124,0.10413 -2.78327,5.90601 -2.80597,6.58873 -0.0202,0.60769 -1.56148,1.70825 -1.71896,1.22743 -0.063,-0.19223 -0.60071,-1.97214 -1.19499,-3.95535 -1.20359,-4.01658 -2.24952,-6.76066 -2.82188,-7.40344 -0.33633,-0.37771 -0.26923,-0.50988 0.59263,-1.16725 0.88399,-0.67425 1.00092,-0.70163 1.29261,-0.30273 0.2608,0.35667 1.41417,3.36813 3.09967,8.0933 0.19692,0.55204 0.27964,0.58881 0.5952,0.26459 0.45606,-0.46856 1.31667,-3.03207 1.72899,-5.1501 0.26484,-1.36048 0.44646,-1.69124 1.21957,-2.22098 0.49961,-0.34234 0.97309,-0.55773 1.05218,-0.47864 0.20181,0.20181 1.89807,4.8016 2.24283,6.08195 0.15701,0.58308 0.406,1.37275 0.55333,1.75484 l 0.26787,0.69471 0.48935,-0.9458 c 0.55402,-1.07079 1.58263,-4.89243 1.58263,-5.87999 0,-0.48631 0.31746,-0.85872 1.24799,-1.46402 0.68639,-0.44649 1.29472,-0.76505 1.35186,-0.70792 0.0571,0.0571 -0.26633,1.07337 -0.71882,2.25831 -0.99971,2.61797 -1.03134,3.01008 -0.22738,2.81838 0.32742,-0.0781 1.33687,-0.28455 2.24322,-0.45885 1.55646,-0.29932 1.6548,-0.36278 1.77228,-1.14351 0.0684,-0.45463 0.31398,-2.23943 0.54571,-3.96622 2.27391,-16.9444 11.86838,-32.12607 26.263715,-41.55802 8.317661,-5.449811 18.150479,-8.781891 28.16499,-9.544371 l 2.30294,-0.17534 0.39716,-1.36633 c 0.21843,-0.751478 0.6959,-2.600233 1.06104,-4.108343 l 0.6639,-2.74202 -0.68341,-0.896001 c -1.17999,-1.547051 -1.37612,-1.177333 -1.4808,2.791507 l -0.0658,2.496883 -1.19063,0.723465 c -0.65484,0.397906 -1.29252,0.732824 -1.41707,0.744263 -0.27127,0.02491 -0.1051,-3.012569 0.37892,-6.926484 l 0.35199,-2.84624 -0.91369,-0.781028 c -0.54544,-0.466246 -1.2336,-0.789366 -1.707442,-0.801715 l -0.793747,-0.02069 1.058337,-0.913853 c 0.582082,-0.50262 1.272622,-0.984304 1.534532,-1.070411 0.64571,-0.21229 2.76545,1.444082 6.33085,4.946965 1.57339,1.545798 2.92435,2.707557 3.00214,2.581687 0.0778,-0.12587 0.12029,-1.557845 0.0944,-3.182168 l -0.047,-2.953313 1.21971,-0.885144 c 0.67084,-0.486829 1.29526,-0.885144 1.3876,-0.885144 0.16622,0 -0.032,6.359215 -0.32608,10.460445 l -0.15245,2.126071 -1.02777,0.591512 -1.02778,0.591513 -0.53281,-1.130083 c -0.64013,-1.357682 -2.51736,-3.588633 -2.79318,-3.319478 -0.18311,0.178689 0.37735,3.56578 0.96427,5.827414 0.23444,0.90343 0.33859,0.99219 1.16422,0.99219 1.72914,0 6.89441,0.8239 10.16068,1.6207 12.65679,3.08763 24.42649,10.389811 32.103,19.917431 7.82783,9.71541 12.61616,21.61365 13.33927,33.14594 0.0929,1.48139 0.2406,2.80639 0.32825,2.94444 0.22709,0.35767 4.34985,1.36288 4.60478,1.12274 0.11664,-0.10988 0.17617,-0.9616 0.13229,-1.8927 l -0.0798,-1.69292 -0.9078,-0.13229 -0.9078,-0.1323 1.04009,-0.79375 1.04009,-0.79375 h 4.16626 c 2.29144,0 4.16667,0.0659 4.16719,0.14654 5.2e-4,0.0806 -0.39169,0.52708 -0.87157,0.99219 -0.68043,0.6595 -1.10268,0.84629 -1.91823,0.84856 -0.57515,0.002 -1.49222,0.0767 -2.03792,0.16691 l -0.99219,0.164 v 1.42059 1.42059 h 2.23335 c 1.22833,0 2.29526,0.1002 2.37095,0.22266 0.0757,0.12246 -0.27065,0.61837 -0.76964,1.102 -0.75124,0.72813 -1.15897,0.90023 -2.37096,1.00074 l -1.4637,0.12138 v 1.79674 1.79675 l 2.01157,0.1885 c 1.10636,0.10367 2.59464,0.11944 3.30729,0.035 0.71265,-0.0844 1.29573,-0.0634 1.29573,0.0468 0,0.11012 -0.39262,0.58076 -0.8725,1.04587 l -0.87249,0.84565 -3.82386,1.3e-4 -3.82386,1.4e-4 0.0934,-2.40702 c 0.0514,-1.32386 -0.009,-2.50949 -0.13429,-2.63473 -0.26372,-0.26373 -4.02836,0.45569 -4.5232,0.86438 -0.1819,0.15023 -0.33073,0.72536 -0.33073,1.27806 0,2.92909 -1.7154,10.76403 -3.44834,15.74996 -1.80381,5.18985 -6.1526,12.89588 -9.76954,17.31158 -8.52834,10.41173 -20.15293,17.54595 -33.34879,20.46678 -3.04813,0.67469 -9.22727,1.49271 -11.28007,1.49332 -0.91033,2.6e-4 -1.12036,0.10009 -1.25316,0.59563 -0.30592,1.14153 -0.16103,1.4187 1.04898,2.00657 1.35424,0.65794 1.31836,0.91625 -0.2442,1.75774 -0.88365,0.47588 -0.89394,0.47469 -1.91744,-0.2208 -1.88441,-1.28049 -3.68414,-0.67153 -3.50448,1.1858 0.11046,1.14203 1.1667,1.85714 4.03557,2.73219 2.34477,0.7152 2.96444,1.18563 3.21553,2.44109 0.20827,1.04136 -0.33913,2.09349 -1.75448,3.37217 -1.84412,1.66605 -4.25438,2.38574 -6.49767,1.94017 z m 5.0292,-21.38048 c 9.59765,-39.65163 8.95597,-36.81363 8.44029,-37.32907 -1.25702,-1.25645 -8.96398,-7.3101 -9.10691,-7.15327 -0.0895,0.0982 -0.30037,9.4655 -0.46851,20.81612 -0.32756,22.11345 -0.36773,28.86849 -0.1705,28.67126 0.0683,-0.0683 0.65586,-2.3206 1.30563,-5.00504 z m 7.75086,3.04453 c 10.26164,-1.34428 19.3429,-5.10037 27.72865,-11.4688 1.89008,-1.43539 4.10105,-3.45666 4.10105,-3.74917 0,-0.18369 -5.41891,-4.58794 -6.28573,-5.10877 -0.20885,-0.12549 -1.04569,0.38329 -2.24896,1.36729 -6.99922,5.72377 -16.21303,9.66812 -24.88196,10.65175 -1.48444,0.16844 -2.77942,0.38291 -2.87773,0.4766 -0.0983,0.0937 -0.5508,1.77769 -1.00553,3.74222 -0.45472,1.96454 -0.88832,3.78024 -0.96355,4.0349 -0.12041,0.4076 0.0696,0.46302 1.58729,0.46302 0.94823,0 3.12915,-0.18407 4.84647,-0.40904 z m -11.9549,-0.45085 c -0.0761,-0.32743 -0.4398,-2.02407 -0.80816,-3.77032 -0.36835,-1.74625 -0.726602,-3.36296 -0.796102,-3.5927 -0.0903,-0.29833 -0.975992,-0.58432 -3.099482,-1.00074 -8.154257,-1.59909 -16.604995,-5.64826 -22.521623,-10.79123 -3.66137,-3.18261 -2.830338,-3.1389 -6.53207,-0.3436 l -3.212883,2.42616 1.549855,1.58191 c 6.046501,6.17158 15.313471,11.62336 24.038397,14.14185 3.61978,1.04487 8.077461,1.89121 10.126398,1.92261 1.31475,0.0202 1.38622,-0.0125 1.25567,-0.57394 z m 12.69606,-12.39172 c 3.45588,-0.65402 8.44902,-2.27475 11.06201,-3.59063 3.91498,-1.97155 9.97236,-6.11162 9.97236,-6.81586 0,-0.17529 -4.00861,-3.52619 -8.90803,-7.44645 -9.75671,-7.80681 -9.86461,-7.89017 -10.01661,-7.73817 -0.12316,0.12316 -6.21078,25.48846 -6.21078,25.87847 0,0.38737 0.85071,0.32776 4.10105,-0.28736 z m -15.423092,-0.52981 c -0.256318,-2.11805 -5.299212,-25.5092 -5.499525,-25.5092 -0.41909,0 -18.610016,13.74124 -18.62161,14.06657 -0.02328,0.65344 4.722066,4.3911 8.456808,6.66096 3.577095,2.17406 11.006856,4.96211 14.418664,5.41067 1.172384,0.15414 1.330756,0.0742 1.245663,-0.629 z m 49.515202,-4.7435 c 6.75701,-7.10047 12.01558,-17.42744 14.04741,-27.58685 0.69888,-3.49449 1.08982,-6.82837 0.86837,-7.40545 -0.11225,-0.29251 -0.89904,-0.20523 -4.17941,0.46363 -2.57774,0.5256 -4.11531,0.96306 -4.24598,1.20806 -0.11267,0.21124 -0.38433,1.51517 -0.60369,2.89762 -1.33996,8.44472 -5.67155,17.38925 -11.64986,24.0564 -0.96815,1.07971 -1.70151,2.11624 -1.62969,2.30341 0.2188,0.5702 4.70443,6.44852 4.92074,6.44852 0.11118,0 1.22363,-1.07341 2.47211,-2.38534 z m -81.707718,-2.5756 c 1.250405,-1.56435 2.380602,-3.03678 2.511549,-3.27206 0.179745,-0.32296 -0.120351,-0.87407 -1.224645,-2.24896 -5.671722,-7.06153 -9.401851,-15.71743 -10.531151,-24.43792 -0.191,-1.47489 -0.45348,-2.77784 -0.58329,-2.89545 -0.36333,-0.32918 -7.19404,-1.94929 -7.5854,-1.79912 -0.27362,0.105 -0.29973,0.70374 -0.12532,2.87406 0.837,10.41542 4.54285,20.66613 10.42445,28.83496 1.532163,2.12798 4.522391,5.78876 4.728427,5.78876 0.06155,0 1.134978,-1.27992 2.38538,-2.84427 z m 72.589338,-1.96914 c -2.76788,-3.93042 -25.70475,-34.38822 -25.97478,-34.49184 -0.19105,-0.0733 -1.99008,-0.10001 -3.99785,-0.0593 l -3.6505,0.074 15.56949,16.26392 c 8.56322,8.94516 16.21076,16.95576 16.99455,17.80133 1.51993,1.63976 2.07607,1.85608 1.05909,0.41196 z M 88.468154,171.82996 c 9.009078,-6.74415 16.426486,-12.41092 16.483136,-12.59283 0.2471,-0.79352 0.42047,-7.60678 0.19356,-7.60678 -0.13474,0 -7.124288,6.63774 -15.532317,14.75052 -8.408032,8.11279 -16.162429,15.56414 -17.231999,16.55855 -1.991088,1.85118 -2.596293,2.79305 -1.118595,1.74083 0.45434,-0.32352 8.197138,-6.10615 17.206215,-12.85029 z m 50.928916,9.36758 c 3.53839,-3.8604 6.94676,-9.59978 8.77204,-14.77133 0.89346,-2.5314 2.26635,-8.34198 2.05268,-8.6877 -0.0758,-0.12266 -2.6103,0.28395 -5.63219,0.90358 -3.0219,0.61963 -8.88764,1.81249 -13.03499,2.65081 -4.14734,0.8383 -7.64165,1.61447 -7.76512,1.7248 -0.23373,0.20885 13.96651,19.30432 14.35554,19.30432 0.12174,0 0.68516,-0.50602 1.25204,-1.12448 z m -60.097664,-9.47585 c 3.929062,-4.94555 7.176761,-9.13909 7.217108,-9.31897 0.05026,-0.22407 -3.865621,-1.3067 -12.435416,-3.43804 -6.879825,-1.71103 -12.609761,-3.10873 -12.733191,-3.10598 -0.687957,0.0153 1.074785,7.9523 2.69277,12.12459 1.50899,3.89123 4.895535,9.59047 7.144564,12.02362 0.369898,0.40019 0.739564,0.7229 0.821479,0.71715 0.08192,-0.006 3.363624,-4.05682 7.292686,-9.00237 z m 12.530078,-15.73821 c 1.926879,-2.40797 3.563517,-4.53476 3.636978,-4.72619 0.159777,-0.41637 -3.797704,-0.54559 -30.016188,-0.98007 -11.302899,-0.18731 -17.644409,-0.19979 -17.809159,-0.035 -0.16474,0.16475 3.49479,1.17455 10.27726,2.83588 5.793216,1.41901 14.759833,3.63202 19.925823,4.9178 5.165989,1.28578 9.63777,2.34407 9.937291,2.35176 0.39402,0.0101 1.513192,-1.19646 4.047995,-4.36414 z m 72.930336,-4.10324 c -0.29104,-0.13391 -2.79135,-0.77436 -5.55625,-1.42323 -2.7649,-0.64887 -8.53943,-2.02666 -12.83229,-3.06175 -19.48436,-4.69806 -23.13769,-5.55352 -23.65593,-5.53924 -0.39304,0.0108 -1.61475,1.35865 -4.21531,4.65046 -2.01403,2.54936 -3.61307,4.68401 -3.55343,4.74365 0.0596,0.0596 7.0653,0.23333 15.56812,0.38597 30.13656,0.541 34.96512,0.57542 34.24509,0.24414 z m -59.97222,-1.0166 c -0.0485,-0.13065 -3.7196,-4.02974 -8.157987,-8.66466 -4.438385,-4.63492 -10.629635,-11.1023 -13.758332,-14.37196 -9.719958,-10.15791 -11.060602,-11.52261 -11.185525,-11.38625 -0.126688,0.13828 0.829427,1.44363 16.133537,22.02656 l 9.393702,12.63386 h 3.831405 c 2.1526,0 3.79275,-0.10409 3.7432,-0.23755 z m 4.68445,-4.04651 c 16.23226,-15.39692 31.35157,-29.9268 31.2483,-30.03007 -0.1164,-0.1164 -5.10569,3.55487 -26.41604,19.4377 l -8.91593,6.64513 -0.0799,3.85148 c -0.0439,2.11831 -0.0158,3.85129 0.0625,3.85106 0.0783,-2.3e-4 1.9238,-1.69011 4.10104,-3.7553 z m 53.97061,1.70437 c -0.0623,-0.40018 -0.18182,-1.71742 -0.26556,-2.92719 -0.37525,-5.42129 -2.54145,-13.23618 -5.23721,-18.89404 -2.40808,-5.05406 -5.88837,-10.26263 -9.2798,-13.88809 l -1.5521,-1.65919 -2.62469,3.28357 -2.62469,3.28358 2.19759,2.73375 c 5.96575,7.42126 9.40858,15.67777 10.65614,25.5553 0.14251,1.12831 0.28307,1.41625 0.74591,1.52802 0.31368,0.0757 1.93954,0.47925 3.61303,0.89668 1.67349,0.41742 3.36715,0.77161 3.7637,0.78708 0.64249,0.0251 0.70865,-0.0511 0.60768,-0.69947 z M 56.693725,145.93667 c 0.47496,-0.15075 0.59778,-0.52127 0.91917,-2.77298 0.30096,-2.10864 1.46198,-6.41329 2.42628,-8.99584 1.973177,-5.28444 4.866446,-10.2243 8.649141,-14.76723 l 2.051753,-2.46411 -2.308632,-3.09214 c -1.269749,-1.70068 -2.351468,-3.14299 -2.403821,-3.20514 -0.337156,-0.40026 -5.114221,5.23658 -7.383141,8.71196 -4.2828,6.56008 -7.09096,13.34652 -8.55515,20.67508 -0.51064,2.55586 -1.08039,7.28688 -0.89935,7.46792 0.0808,0.0808 6.61554,-1.27561 7.50375,-1.55752 z m 93.723615,-0.58386 c -1.50177,-9.47657 -4.40484,-15.92665 -10.63111,-23.62037 -0.53495,-0.66103 -0.53564,-0.66112 -1.05516,-0.1323 -0.88567,0.90153 -14.58479,17.97495 -14.58479,18.17725 0,0.24652 -0.0311,0.23851 13.49375,3.48347 13.14265,3.15329 12.51551,3.01017 12.73066,2.9053 0.0896,-0.0437 0.11062,-0.40969 0.0466,-0.81335 z m -73.794792,-3.65518 c 5.658249,-1.22109 10.347088,-2.27952 10.41964,-2.35207 0.129929,-0.12993 -1.958933,-3.01815 -9.818295,-13.57553 l -3.986578,-5.35512 -0.768649,0.72491 c -3.42797,3.23289 -7.903778,11.14384 -9.557924,16.89355 -0.786685,2.73448 -1.526709,6.41316 -1.348205,6.70198 0.0677,0.10954 1.169156,-0.0296 2.447686,-0.3092 1.27853,-0.2796 6.954075,-1.50743 12.612325,-2.72852 z m 29.396662,-23.93394 c 0.2527,-12.8786 0.41631,-23.832351 0.36358,-24.341671 -0.0654,-0.63177 -1.71638,5.54802 -5.19535,19.446881 -2.804703,11.2051 -5.096656,20.57557 -5.093227,20.82327 0.007,0.50427 9.034527,7.94158 9.299947,7.66173 0.0911,-0.096 0.37235,-10.71162 0.62505,-23.59021 z m 30.24086,0.94738 c 0.27297,-0.25947 0.0329,-0.58999 -1.22027,-1.67996 -1.93144,-1.67992 -6.15896,-4.56378 -8.1852,-5.58366 -4.55755,-2.29397 -10.74836,-4.34296 -13.82082,-4.57432 -1.13638,-0.0856 -1.18663,-0.0595 -1.10303,0.5718 0.17819,1.34567 5.04606,24.87976 5.19659,25.12331 0.12439,0.20126 17.84519,-12.6333 19.13273,-13.85717 z m -41.777315,12.7448 c 0.283038,-0.88365 6.115605,-24.1575 6.115605,-24.40327 0,-0.53853 -5.820293,0.6679 -9.735946,2.01808 -5.058852,1.74436 -10.415629,4.73691 -13.59313,7.59376 l -1.314677,1.18201 0.614066,0.59786 c 0.987843,0.96178 17.216251,13.87146 17.437438,13.87146 0.110667,0 0.325157,-0.38695 0.476644,-0.8599 z m 48.652825,-17.8257 c 1.70688,-1.25478 3.21726,-2.38662 3.35641,-2.51519 0.6447,-0.59567 -6.24516,-6.24302 -11.10868,-9.10535 -6.24793,-3.677111 -12.9493,-6.111921 -19.96828,-7.255101 -3.84745,-0.62663 -6.47327,-0.71361 -6.28054,-0.20803 0.0694,0.1819 0.4547,1.93807 0.85634,3.9026 0.40165,1.964531 0.80414,3.651581 0.89442,3.748991 0.0903,0.0974 1.29525,0.36913 2.6777,0.60382 9.01693,1.53077 17.88054,5.63652 24.20937,11.21412 1.16417,1.02598 2.14889,1.87221 2.18826,1.8805 0.0394,0.008 1.46813,-1.01157 3.175,-2.26636 z m -68.201616,-0.21626 c 7.068756,-5.75367 14.305448,-9.02716 23.283149,-10.53206 l 3.571877,-0.59874 0.98712,-3.835231 c 0.54292,-2.10938 0.95274,-3.94521 0.91073,-4.07963 -0.1897,-0.60683 -7.087577,0.23359 -11.899364,1.44978 -6.497258,1.64219 -14.250761,5.316671 -19.305919,9.149311 -3.123943,2.36847 -6.03813,4.93711 -5.960232,5.2535 0.10395,0.42221 5.538991,4.86096 5.976781,4.88119 0.188349,0.009 1.284484,-0.75095 2.435858,-1.68812 z"
       id="path5147"
       inkscape:connector-curvature="0" />
  </g>
</svg>
