<?xml version="1.0" encoding="UTF-8" standalone="no"?>
<svg
   xmlns:dc="http://purl.org/dc/elements/1.1/"
   xmlns:cc="http://creativecommons.org/ns#"
   xmlns:rdf="http://www.w3.org/1999/02/22-rdf-syntax-ns#"
   xmlns:svg="http://www.w3.org/2000/svg"
   xmlns="http://www.w3.org/2000/svg"
   xmlns:sodipodi="http://sodipodi.sourceforge.net/DTD/sodipodi-0.dtd"
   xmlns:inkscape="http://www.inkscape.org/namespaces/inkscape"
   version="1.1"
   width="1133.8583"
   height="850.39368"
   id="svg4551"
   viewBox="0 0 1133.8583 850.39368"
   sodipodi:docname="BMKG.svg"
   inkscape:version="0.92.0 r15299">
  <metadata
     id="metadata4557">
    <rdf:RDF>
      <cc:Work
         rdf:about="">
        <dc:format>image/svg+xml</dc:format>
        <dc:type
           rdf:resource="http://purl.org/dc/dcmitype/StillImage" />
        <dc:title></dc:title>
      </cc:Work>
    </rdf:RDF>
  </metadata>
  <defs
     id="defs4555" />
  <sodipodi:namedview
     pagecolor="#ffffff"
     bordercolor="#666666"
     borderopacity="1"
     objecttolerance="10"
     gridtolerance="10"
     guidetolerance="10"
     inkscape:pageopacity="0"
     inkscape:pageshadow="2"
     inkscape:window-width="1920"
     inkscape:window-height="1018"
     id="namedview4553"
     showgrid="false"
     inkscape:zoom="0.31397222"
     inkscape:cx="385.19804"
     inkscape:cy="516.98359"
     inkscape:window-x="-8"
     inkscape:window-y="-8"
     inkscape:window-maximized="1"
     inkscape:current-layer="Layer1001" />
  <g
     id="Layer1000">
    <path
       d="M 0,0 V 850.3937 H 1133.8583 V 0 Z"
       style="fill:none"
       id="path4520"
       inkscape:connector-curvature="0" />
    <g
       id="Layer1001">
      <g
         id="Layer1002"
         transform="matrix(1.4386331,0,0,1.4386331,-225.37538,-50.286138)">
        <path
           d="m 328.7815,234.9659 c 27.3452,-14.1574 57.8233,-19.4739 83.9902,0.3197 h 6.3652 c 4.1125,-9.264 9.3688,-18.0708 15.4081,-26.5653 h -94.6087 c -5.4862,7.9141 -8.9485,16.7836 -11.1548,26.2456 z"
           style="fill:#0048cc;fill-rule:evenodd"
           id="path4522"
           inkscape:connector-curvature="0" />
        <path
           d="M 427.609,113.5988 C 508.7095,60.1469 610.5075,51.9966 706.1754,113.4543 Z"
           style="fill:#0048cc;fill-rule:evenodd"
           id="path4524"
           inkscape:connector-curvature="0" />
        <path
           d="m 384.2027,147.6731 365.56,0.506 c 12.2355,13.1775 19.7749,22.0913 28.3661,34.9168 H 563.5691 c -32.655,-14.8989 -65.8864,-14.4655 -97.0937,0 l -110.5307,-0.1445 c 8.2997,-13.4392 17.6469,-25.3075 28.258,-35.2783 z"
           style="fill:#0048cc;fill-rule:evenodd"
           id="path4526"
           inkscape:connector-curvature="0" />
        <path
           d="m 595.6989,208.8272 197.6103,-0.0725 c 5.6169,7.8382 9.1872,16.5753 11.7178,25.7689 l -118.9473,0.398 c -23.3782,-15.9762 -48.9701,-15.4103 -70.7068,-0.0365 l -4.1954,0.001 c -4.1802,-9.013 -9.1766,-17.8201 -15.4786,-26.059 z"
           style="fill:#0048cc;fill-rule:evenodd"
           id="path4528"
           inkscape:connector-curvature="0" />
        <path
           d="m 701.6645,251.2186 109.5105,0.2904 c 3.2308,6.0733 5.0149,12.4363 5.3527,19.0904 l -49.2579,0.2178 c -19.2034,-11.6767 -38.6847,-13.9909 -56.5636,-1.4516 h -0.9403 c -1.2557,-6.4104 -3.764,-12.5078 -8.1014,-18.147 z"
           style="fill:#0048cc;fill-rule:evenodd"
           id="path4530"
           inkscape:connector-curvature="0" />
        <path
           d="m 773.7794,278.3665 43.8334,0.0726 c 1.9597,3.5307 2.8624,7.1148 2.8932,10.7429 l -41.5146,0.1816 c -0.6165,-4.1351 -2.2813,-7.8308 -5.212,-10.9971 z"
           style="fill:#0048cc;fill-rule:evenodd"
           id="path4532"
           inkscape:connector-curvature="0" />
        <path
           d="m 310.2015,324.6048 513.3468,-0.0726 0.1084,8.7105 -513.4191,0.0365 z"
           style="fill:#656565;fill-rule:evenodd"
           id="path4534"
           inkscape:connector-curvature="0" />
        <path
           d="m 314.3331,367.1672 123.9717,-0.1714 c 4.3735,3.2576 7.7391,6.4827 10.1263,11.3569 H 315.9192 c -1.289,-3.7828 -1.6484,-7.4994 -1.5861,-11.1855 z"
           style="fill:#319900;fill-rule:evenodd"
           id="path4536"
           inkscape:connector-curvature="0" />
        <path
           d="m 316.932,385.2154 h 140.3959 l 16.0576,17.1306 338.2237,0.1452 c 0.2291,3.6217 -0.591,7.0242 -2.6765,10.1624 l -326.5056,0.1452 c -2.2118,-2.4983 -4.3462,-5.0753 -6.3651,-7.7671 l -153.6728,-0.0361 c -2.5367,-6.4908 -4.2715,-13.0964 -5.4572,-19.7802 z"
           style="fill:#319900;fill-rule:evenodd"
           id="path4538"
           inkscape:connector-curvature="0" />
        <path
           d="m 328.722,421.6545 476.2367,0.0726 c -1.1662,6.1424 -3.6437,12.1973 -7.7034,18.147 l -285.3536,-0.1452 6.6548,7.9846 -178.1925,-0.1452 c -5.5187,-8.2286 -9.2066,-16.9146 -11.642,-25.9138 z"
           style="fill:#319900;fill-rule:evenodd"
           id="path4540"
           inkscape:connector-curvature="0" />
        <path
           d="m 356.0636,473.2642 187.0499,0.0726 -16.8533,-16.9128 261.8812,0.1452 c -3.5852,8.2887 -9.7084,17.2305 -16.7814,25.8776 l -217.2522,0.9073 26.2934,26.0225 167.7761,0.109 c -13.2023,14.2056 -27.9192,25.7771 -44.0144,34.9508 l -89.0068,-0.1087 28.5726,28.309 c -82.8021,26.5587 -156.3115,8.8285 -216.6353,-29.761 l 185.4585,0.2178 -32.1507,-33.7169 -196.2006,-1.0525 c -11.426,-11.0726 -20.5643,-22.8318 -28.137,-35.0599 z"
           style="fill:#319900;fill-rule:evenodd"
           id="path4542"
           inkscape:connector-curvature="0" />
      </g>
    </g>
  </g>
</svg>
