<?xml version="1.0" encoding="UTF-8"?>
<svg xmlns="http://www.w3.org/2000/svg" xmlns:xlink="http://www.w3.org/1999/xlink" width="30pt" height="30pt" viewBox="0 0 30 30" version="1.1">
<g id="surface1">
<path style=" stroke:none;fill-rule:nonzero;fill:rgb(29.803922%,32.156863%,45.882353%);fill-opacity:1;" d="M 23.09375 29.554688 L 19.980469 29.554688 L 14.992188 13.117188 L 10.003906 29.554688 L 6.890625 29.554688 L 14.992188 2.859375 Z M 23.09375 29.554688 "/>
<path style=" stroke:none;fill-rule:nonzero;fill:rgb(100%,74.117647%,28.235294%);fill-opacity:1;" d="M 17.40625 2.859375 C 17.40625 4.191406 16.324219 5.273438 14.992188 5.273438 C 13.660156 5.273438 12.578125 4.191406 12.578125 2.859375 C 12.578125 1.527344 13.660156 0.445312 14.992188 0.445312 C 16.324219 0.445312 17.40625 1.527344 17.40625 2.859375 Z M 17.40625 2.859375 "/>
<path style=" stroke:none;fill-rule:nonzero;fill:rgb(100%,85.882353%,27.058824%);fill-opacity:1;" d="M 17.402344 2.859375 C 17.402344 3.894531 16.753906 4.773438 15.839844 5.117188 C 14.925781 4.773438 14.277344 3.894531 14.277344 2.859375 C 14.277344 1.824219 14.925781 0.945312 15.839844 0.601562 C 16.753906 0.945312 17.402344 1.824219 17.402344 2.859375 Z M 17.402344 2.859375 "/>
<path style=" stroke:none;fill-rule:nonzero;fill:rgb(0%,0%,0%);fill-opacity:1;" d="M 24.390625 0.160156 C 24.21875 -0.015625 23.933594 -0.015625 23.761719 0.160156 C 23.585938 0.332031 23.585938 0.617188 23.761719 0.789062 C 26.726562 3.757812 26.726562 8.582031 23.761719 11.546875 C 23.585938 11.722656 23.585938 12.003906 23.761719 12.179688 C 23.847656 12.265625 23.960938 12.3125 24.074219 12.3125 C 24.191406 12.3125 24.304688 12.265625 24.390625 12.179688 C 27.707031 8.867188 27.707031 3.472656 24.390625 0.160156 Z M 24.390625 0.160156 "/>
<path style=" stroke:none;fill-rule:nonzero;fill:rgb(0%,0%,0%);fill-opacity:1;" d="M 23.929688 6.167969 C 23.929688 7.652344 23.351562 9.046875 22.304688 10.09375 C 22.132812 10.269531 22.132812 10.550781 22.304688 10.726562 C 22.394531 10.8125 22.507812 10.855469 22.621094 10.855469 C 22.738281 10.855469 22.851562 10.8125 22.9375 10.726562 C 24.152344 9.511719 24.824219 7.890625 24.824219 6.167969 C 24.824219 4.445312 24.152344 2.828125 22.9375 1.613281 C 22.761719 1.4375 22.480469 1.4375 22.304688 1.613281 C 22.132812 1.789062 22.132812 2.070312 22.304688 2.246094 C 23.351562 3.292969 23.929688 4.683594 23.929688 6.167969 Z M 23.929688 6.167969 "/>
<path style=" stroke:none;fill-rule:nonzero;fill:rgb(0%,0%,0%);fill-opacity:1;" d="M 20.851562 9.273438 C 20.941406 9.359375 21.054688 9.402344 21.167969 9.402344 C 21.28125 9.402344 21.398438 9.359375 21.484375 9.273438 C 23.195312 7.5625 23.195312 4.777344 21.484375 3.066406 C 21.308594 2.890625 21.027344 2.890625 20.851562 3.066406 C 20.679688 3.242188 20.679688 3.523438 20.851562 3.699219 C 22.214844 5.0625 22.214844 7.277344 20.851562 8.640625 C 20.679688 8.816406 20.679688 9.097656 20.851562 9.273438 Z M 20.851562 9.273438 "/>
<path style=" stroke:none;fill-rule:nonzero;fill:rgb(0%,0%,0%);fill-opacity:1;" d="M 19.398438 7.816406 C 19.484375 7.90625 19.601562 7.949219 19.714844 7.949219 C 19.828125 7.949219 19.941406 7.90625 20.03125 7.816406 C 20.941406 6.910156 20.941406 5.429688 20.03125 4.519531 C 19.855469 4.347656 19.574219 4.347656 19.398438 4.519531 C 19.222656 4.695312 19.222656 4.976562 19.398438 5.152344 C 19.960938 5.714844 19.960938 6.625 19.398438 7.1875 C 19.222656 7.359375 19.222656 7.644531 19.398438 7.816406 Z M 19.398438 7.816406 "/>
<path style=" stroke:none;fill-rule:nonzero;fill:rgb(0%,0%,0%);fill-opacity:1;" d="M 4 6.167969 C 4 4.136719 4.789062 2.226562 6.222656 0.789062 C 6.398438 0.617188 6.398438 0.332031 6.222656 0.160156 C 6.046875 -0.015625 5.765625 -0.015625 5.589844 0.160156 C 3.988281 1.761719 3.105469 3.898438 3.105469 6.167969 C 3.105469 8.441406 3.988281 10.578125 5.589844 12.179688 C 5.679688 12.265625 5.792969 12.3125 5.90625 12.3125 C 6.023438 12.3125 6.136719 12.265625 6.222656 12.179688 C 6.398438 12.003906 6.398438 11.722656 6.222656 11.546875 C 4.789062 10.113281 4 8.203125 4 6.167969 Z M 4 6.167969 "/>
<path style=" stroke:none;fill-rule:nonzero;fill:rgb(0%,0%,0%);fill-opacity:1;" d="M 7.046875 10.726562 C 7.132812 10.8125 7.246094 10.855469 7.359375 10.855469 C 7.476562 10.855469 7.589844 10.8125 7.675781 10.726562 C 7.851562 10.550781 7.851562 10.269531 7.675781 10.09375 C 5.511719 7.929688 5.511719 4.410156 7.675781 2.246094 C 7.851562 2.070312 7.851562 1.789062 7.675781 1.613281 C 7.503906 1.4375 7.21875 1.4375 7.046875 1.613281 C 4.53125 4.125 4.53125 8.214844 7.046875 10.726562 Z M 7.046875 10.726562 "/>
<path style=" stroke:none;fill-rule:nonzero;fill:rgb(0%,0%,0%);fill-opacity:1;" d="M 8.5 9.273438 C 8.585938 9.359375 8.699219 9.402344 8.816406 9.402344 C 8.929688 9.402344 9.042969 9.359375 9.128906 9.273438 C 9.304688 9.097656 9.304688 8.816406 9.128906 8.640625 C 8.472656 7.980469 8.109375 7.105469 8.109375 6.167969 C 8.109375 5.234375 8.472656 4.359375 9.128906 3.699219 C 9.304688 3.523438 9.304688 3.242188 9.128906 3.066406 C 8.957031 2.890625 8.671875 2.890625 8.5 3.066406 C 7.671875 3.894531 7.214844 4.996094 7.214844 6.167969 C 7.214844 7.34375 7.671875 8.445312 8.5 9.273438 Z M 8.5 9.273438 "/>
<path style=" stroke:none;fill-rule:nonzero;fill:rgb(0%,0%,0%);fill-opacity:1;" d="M 10.269531 7.949219 C 10.382812 7.949219 10.496094 7.90625 10.585938 7.816406 C 10.757812 7.644531 10.757812 7.359375 10.585938 7.1875 C 10.3125 6.914062 10.164062 6.554688 10.164062 6.167969 C 10.164062 5.785156 10.3125 5.425781 10.585938 5.152344 C 10.757812 4.976562 10.757812 4.695312 10.585938 4.519531 C 10.410156 4.347656 10.128906 4.347656 9.953125 4.519531 C 9.511719 4.960938 9.269531 5.546875 9.269531 6.167969 C 9.269531 6.792969 9.511719 7.378906 9.953125 7.816406 C 10.039062 7.90625 10.15625 7.949219 10.269531 7.949219 Z M 10.269531 7.949219 "/>
<path style=" stroke:none;fill-rule:nonzero;fill:rgb(0%,0%,0%);fill-opacity:1;" d="M 13.746094 5.433594 L 7.613281 25.636719 C 7.539062 25.875 7.671875 26.125 7.910156 26.195312 C 7.953125 26.207031 7.996094 26.214844 8.039062 26.214844 C 8.230469 26.214844 8.410156 26.089844 8.46875 25.898438 L 14.597656 5.691406 C 14.726562 5.710938 14.859375 5.71875 14.992188 5.71875 C 15.125 5.71875 15.253906 5.710938 15.382812 5.691406 L 17.542969 12.808594 C 17.601562 13.003906 17.78125 13.128906 17.972656 13.128906 C 18.015625 13.128906 18.058594 13.121094 18.101562 13.109375 C 18.339844 13.035156 18.472656 12.785156 18.398438 12.550781 L 16.238281 5.433594 C 17.210938 4.957031 17.851562 3.957031 17.851562 2.859375 C 17.851562 1.675781 17.105469 0.597656 16 0.183594 C 15.675781 0.0625 15.339844 0 14.992188 0 C 13.414062 0 12.132812 1.28125 12.132812 2.859375 C 12.132812 3.988281 12.789062 4.96875 13.746094 5.433594 Z M 14.992188 0.894531 C 15.230469 0.894531 15.464844 0.9375 15.683594 1.019531 C 16.445312 1.304688 16.957031 2.046875 16.957031 2.859375 C 16.957031 3.675781 16.445312 4.414062 15.683594 4.699219 C 15.464844 4.785156 15.230469 4.824219 14.992188 4.824219 C 13.90625 4.824219 13.027344 3.945312 13.027344 2.859375 C 13.027344 1.777344 13.90625 0.894531 14.992188 0.894531 Z M 14.992188 0.894531 "/>
<path style=" stroke:none;fill-rule:nonzero;fill:rgb(0%,0%,0%);fill-opacity:1;" d="M 18.921875 14.269531 C 18.851562 14.035156 18.601562 13.902344 18.363281 13.972656 C 18.128906 14.046875 17.996094 14.292969 18.066406 14.53125 L 22.492188 29.105469 L 20.3125 29.105469 L 15.417969 12.988281 C 15.363281 12.796875 15.1875 12.671875 14.992188 12.671875 C 14.796875 12.671875 14.621094 12.796875 14.5625 12.988281 L 9.671875 29.105469 L 7.492188 29.105469 L 8 27.4375 C 8.070312 27.199219 7.9375 26.953125 7.703125 26.878906 C 7.464844 26.808594 7.214844 26.941406 7.144531 27.175781 L 6.464844 29.421875 C 6.421875 29.558594 6.449219 29.707031 6.53125 29.820312 C 6.617188 29.933594 6.75 30 6.890625 30 L 23.09375 30 C 23.234375 30 23.367188 29.933594 23.453125 29.820312 C 23.535156 29.707031 23.5625 29.558594 23.519531 29.421875 Z M 13.222656 20.484375 L 15.816406 20.484375 L 12.390625 23.222656 Z M 11.878906 24.914062 L 16.832031 24.914062 L 10.769531 28.570312 Z M 12.820312 24.023438 L 16.855469 20.796875 L 17.835938 24.023438 Z M 14.992188 14.65625 L 16.488281 19.589844 L 13.492188 19.589844 Z M 18.175781 25.148438 L 19.378906 29.105469 L 11.609375 29.105469 Z M 18.175781 25.148438 "/>
</g>
</svg>
